<svg xmlns="http://www.w3.org/2000/svg" xmlns:xlink="http://www.w3.org/1999/xlink" width="500" zoomAndPan="magnify" viewBox="0 0 375 374.999991" height="500" preserveAspectRatio="xMidYMid meet" version="1.0"><defs><g/><clipPath id="e04e5f1a6a"><path d="M 86 94.46875 L 143 94.46875 L 143 195 L 86 195 Z M 86 94.46875 " clip-rule="nonzero"/></clipPath><clipPath id="fb18d50ee9"><path d="M 163 132 L 174.894531 132 L 174.894531 163 L 163 163 Z M 163 132 " clip-rule="nonzero"/></clipPath></defs><path fill="#e67e22" d="M 148.558594 139.964844 C 154.589844 143.929688 159.519531 139.269531 159.519531 139.269531 C 158.609375 143.574219 163.828125 143.988281 163.828125 143.988281 C 153.613281 145.96875 148.558594 139.964844 148.558594 139.964844 " fill-opacity="1" fill-rule="nonzero"/><path fill="#e67e22" d="M 147.851562 97.453125 C 147.851562 97.453125 161.292969 109.480469 137.433594 133.707031 C 113.578125 157.933594 104.503906 175.410156 126.683594 194.898438 C 148.859375 214.386719 134.9375 236.734375 117.273438 232.195312 C 117.273438 232.195312 133.226562 232.535156 132.820312 219.761719 C 132.328125 204.285156 89.722656 195.234375 102.152344 167.007812 C 114.585938 138.785156 155.914062 118.621094 147.851562 97.453125 " fill-opacity="1" fill-rule="nonzero"/><g clip-path="url(#e04e5f1a6a)"><path fill="#e67e22" d="M 130.8125 94.472656 C 130.8125 94.472656 162.425781 98.855469 121.109375 131.410156 C 79.789062 163.964844 91.175781 180.867188 99.882812 194.324219 C 99.882812 194.324219 72.902344 176.171875 97.007812 146.746094 C 121.109375 117.324219 153.039062 106.679688 130.8125 94.472656 " fill-opacity="1" fill-rule="nonzero"/></g><path fill="#e67e22" d="M 142.585938 136.667969 C 142.585938 136.667969 113.769531 169.347656 147.132812 176.328125 C 147.132812 176.328125 122.660156 168.441406 142.585938 136.667969 " fill-opacity="1" fill-rule="nonzero"/><path fill="#e67e22" d="M 154.492188 167.996094 C 154.492188 167.996094 156.996094 168.734375 160.691406 166.035156 C 164.441406 163.292969 167.875 165.71875 162.980469 169.15625 C 162.980469 169.15625 164.515625 170.386719 164.082031 172.015625 C 163.644531 173.644531 161.441406 174.375 157.796875 171.269531 L 154.492188 167.996094 " fill-opacity="1" fill-rule="nonzero"/><g clip-path="url(#fb18d50ee9)"><path fill="#e67e22" d="M 163.933594 161.804688 C 164.039062 161.601562 164.207031 161.398438 164.425781 161.214844 C 164.863281 160.839844 165.472656 160.527344 166.183594 160.242188 C 166.890625 159.949219 167.707031 159.6875 168.582031 159.414062 C 169.457031 159.136719 170.40625 158.855469 171.332031 158.480469 C 171.792969 158.292969 172.25 158.078125 172.628906 157.820312 C 172.816406 157.695312 172.984375 157.554688 173.101562 157.414062 C 173.226562 157.273438 173.292969 157.140625 173.320312 157.019531 C 173.347656 156.894531 173.347656 156.765625 173.304688 156.597656 C 173.285156 156.511719 173.253906 156.421875 173.214844 156.328125 L 173.191406 156.269531 L 173.144531 156.171875 L 173.136719 156.160156 C 173.148438 156.1875 173.136719 156.164062 173.140625 156.164062 L 173.128906 156.148438 L 173.109375 156.113281 C 173.097656 156.089844 173.085938 156.066406 173.070312 156.042969 C 172.953125 155.847656 172.796875 155.628906 172.632812 155.410156 C 172.464844 155.1875 172.285156 154.964844 172.101562 154.734375 C 171.726562 154.28125 171.339844 153.8125 170.953125 153.332031 C 170.5625 152.855469 170.179688 152.359375 169.8125 151.855469 C 169.0625 150.847656 168.375 149.78125 167.769531 148.6875 C 167.472656 148.136719 167.191406 147.582031 166.9375 147.023438 C 166.6875 146.460938 166.460938 145.898438 166.261719 145.335938 C 166.0625 144.769531 165.890625 144.207031 165.742188 143.652344 C 165.59375 143.097656 165.480469 142.546875 165.382812 142.011719 C 165.195312 140.9375 165.105469 139.90625 165.089844 138.960938 C 165.082031 138.726562 165.085938 138.496094 165.089844 138.269531 C 165.09375 138.042969 165.105469 137.820312 165.109375 137.609375 C 165.121094 137.394531 165.140625 137.183594 165.152344 136.984375 C 165.171875 136.78125 165.191406 136.585938 165.207031 136.394531 C 165.292969 135.636719 165.410156 134.988281 165.523438 134.457031 C 165.582031 134.191406 165.632812 133.953125 165.691406 133.75 C 165.746094 133.546875 165.789062 133.371094 165.832031 133.234375 C 165.871094 133.09375 165.902344 132.988281 165.925781 132.917969 C 165.949219 132.84375 165.957031 132.808594 165.957031 132.808594 C 165.957031 132.808594 165.957031 132.847656 165.957031 132.921875 C 165.957031 132.996094 165.960938 133.109375 165.957031 133.253906 C 165.953125 133.398438 165.953125 133.578125 165.957031 133.785156 C 165.957031 133.992188 165.960938 134.230469 165.964844 134.5 C 165.980469 135.03125 166 135.679688 166.058594 136.410156 C 166.074219 136.59375 166.089844 136.78125 166.109375 136.976562 C 166.128906 137.171875 166.152344 137.371094 166.171875 137.574219 C 166.21875 137.980469 166.277344 138.40625 166.355469 138.847656 C 166.386719 139.070312 166.429688 139.292969 166.472656 139.523438 C 166.519531 139.75 166.5625 139.980469 166.617188 140.214844 C 166.714844 140.683594 166.839844 141.160156 166.980469 141.648438 C 167.117188 142.136719 167.273438 142.632812 167.449219 143.132812 C 167.625 143.632812 167.824219 144.136719 168.042969 144.644531 C 168.253906 145.148438 168.488281 145.65625 168.746094 146.160156 C 169 146.667969 169.273438 147.171875 169.566406 147.671875 C 170.148438 148.675781 170.804688 149.65625 171.496094 150.628906 C 171.671875 150.867188 171.847656 151.109375 172.027344 151.351562 C 172.207031 151.589844 172.386719 151.832031 172.566406 152.070312 C 172.929688 152.554688 173.300781 153.03125 173.664062 153.53125 C 173.84375 153.78125 174.027344 154.03125 174.207031 154.296875 C 174.382812 154.5625 174.558594 154.84375 174.71875 155.167969 C 174.738281 155.210938 174.757812 155.25 174.777344 155.296875 L 174.839844 155.4375 L 174.882812 155.539062 L 174.9375 155.6875 C 175 155.867188 175.050781 156.058594 175.085938 156.261719 C 175.152344 156.664062 175.140625 157.132812 174.988281 157.554688 C 174.839844 157.980469 174.578125 158.328125 174.308594 158.589844 C 174.035156 158.851562 173.746094 159.046875 173.460938 159.203125 C 172.894531 159.511719 172.339844 159.699219 171.804688 159.859375 C 170.742188 160.160156 169.75 160.328125 168.84375 160.488281 C 167.9375 160.640625 167.113281 160.777344 166.402344 160.933594 C 165.6875 161.09375 165.082031 161.277344 164.640625 161.523438 C 164.421875 161.644531 164.242188 161.78125 164.121094 161.925781 C 163.992188 162.074219 163.925781 162.226562 163.890625 162.363281 C 163.859375 162.496094 163.851562 162.605469 163.851562 162.679688 C 163.851562 162.753906 163.859375 162.789062 163.859375 162.789062 C 163.859375 162.789062 163.84375 162.753906 163.824219 162.683594 C 163.804688 162.609375 163.78125 162.496094 163.785156 162.347656 C 163.789062 162.195312 163.828125 162.003906 163.933594 161.804688 " fill-opacity="1" fill-rule="nonzero"/></g><g fill="#e67e22" fill-opacity="1"><g transform="translate(140.774218, 228.182999)"><g><path d="M 60.96875 -11.28125 C 60.96875 -9.039062 60.164062 -6.960938 58.5625 -5.046875 C 56.289062 -2.304688 53.253906 -0.332031 49.453125 0.875 C 46.628906 1.78125 43.890625 2.234375 41.234375 2.234375 C 40.253906 2.234375 39.296875 2.175781 38.359375 2.0625 C 32.203125 1.269531 26.992188 -0.0820312 22.734375 -2 C 18.859375 0.863281 14.765625 2.296875 10.453125 2.296875 C 5.359375 2.296875 2.207031 0.882812 1 -1.9375 C 0.726562 -2.601562 0.59375 -3.382812 0.59375 -4.28125 C 0.59375 -5.1875 1.039062 -6.148438 1.9375 -7.171875 C 3.34375 -8.734375 5.300781 -9.515625 7.8125 -9.515625 C 9.457031 -9.515625 10.941406 -9.28125 12.265625 -8.8125 C 13.597656 -8.34375 15.242188 -7.578125 17.203125 -6.515625 C 19.160156 -5.460938 20.613281 -4.703125 21.5625 -4.234375 C 23.28125 -5.910156 25.054688 -8.242188 26.890625 -11.234375 C 28.734375 -14.234375 30.347656 -17.171875 31.734375 -20.046875 C 33.128906 -22.929688 34.90625 -26.132812 37.0625 -29.65625 C 39.21875 -33.1875 41.410156 -36.179688 43.640625 -38.640625 L 46.984375 -42.46875 C 43.890625 -43.007812 40.484375 -43.28125 36.765625 -43.28125 C 33.046875 -43.28125 28.957031 -42.789062 24.5 -41.8125 C 18.382812 -40.519531 13.679688 -37.898438 10.390625 -33.953125 C 8.398438 -31.554688 7.40625 -29.285156 7.40625 -27.140625 C 7.40625 -24.273438 8.796875 -22.414062 11.578125 -21.5625 C 12.546875 -21.28125 13.398438 -21.140625 14.140625 -21.140625 C 14.890625 -21.140625 15.753906 -21.273438 16.734375 -21.546875 C 17.710938 -21.828125 18.660156 -22.40625 19.578125 -23.28125 C 20.503906 -24.164062 21.171875 -25.019531 21.578125 -25.84375 C 21.992188 -26.664062 22.203125 -27.28125 22.203125 -27.6875 C 22.203125 -28.101562 22.394531 -28.3125 22.78125 -28.3125 C 23.175781 -28.269531 23.394531 -27.992188 23.4375 -27.484375 L 23.4375 -27.421875 C 23 -24.566406 21.472656 -22.394531 18.859375 -20.90625 C 17.253906 -20.050781 15.644531 -19.625 14.03125 -19.625 L 10.984375 -20.140625 C 6.828125 -21.585938 4.75 -24.289062 4.75 -28.25 C 4.75 -30.945312 5.945312 -33.609375 8.34375 -36.234375 C 12.175781 -40.546875 17.8125 -43.226562 25.25 -44.28125 C 28.851562 -44.789062 32.601562 -45.046875 36.5 -45.046875 C 40.394531 -45.046875 44.359375 -44.613281 48.390625 -43.75 C 49.492188 -44.695312 50.457031 -45.328125 51.28125 -45.640625 C 52.101562 -45.953125 52.582031 -46.109375 52.71875 -46.109375 C 52.851562 -46.109375 52.941406 -46.085938 52.984375 -46.046875 C 53.210938 -46.046875 53.257812 -45.914062 53.125 -45.65625 C 52.988281 -45.40625 52.554688 -45.046875 51.828125 -44.578125 C 51.109375 -44.109375 50.671875 -43.675781 50.515625 -43.28125 C 55.835938 -41.914062 59.675781 -39.957031 62.03125 -37.40625 C 63.28125 -36 63.90625 -34.5625 63.90625 -33.09375 C 63.90625 -31.625 63.472656 -30.144531 62.609375 -28.65625 C 61.472656 -26.695312 59.628906 -25.21875 57.078125 -24.21875 C 54.535156 -23.226562 51.972656 -22.671875 49.390625 -22.546875 C 51.898438 -21.765625 54.234375 -20.671875 56.390625 -19.265625 C 59.441406 -17.265625 60.96875 -14.601562 60.96875 -11.28125 Z M 40.40625 0.59375 C 44.789062 0.59375 48.507812 -0.660156 51.5625 -3.171875 C 54.894531 -5.835938 56.5625 -8.71875 56.5625 -11.8125 C 56.5625 -15.019531 54.859375 -17.445312 51.453125 -19.09375 C 50.203125 -19.675781 48.664062 -20.25 46.84375 -20.8125 C 45.019531 -21.382812 43.550781 -21.863281 42.4375 -22.25 C 41.320312 -22.644531 40.6875 -23.019531 40.53125 -23.375 C 40.53125 -24.125 41.097656 -24.515625 42.234375 -24.546875 C 42.972656 -24.546875 44.101562 -24.488281 45.625 -24.375 C 47.15625 -24.257812 48.46875 -24.207031 49.5625 -24.21875 C 50.664062 -24.238281 51.988281 -24.628906 53.53125 -25.390625 C 55.082031 -26.160156 56.40625 -27.15625 57.5 -28.375 C 59.257812 -30.332031 60.140625 -32.171875 60.140625 -33.890625 C 60.140625 -37.566406 56.695312 -40.207031 49.8125 -41.8125 C 47.726562 -38.957031 44.003906 -32.921875 38.640625 -23.703125 C 33.273438 -14.484375 29.144531 -8.304688 26.25 -5.171875 L 24.015625 -3.046875 C 28.441406 -1.210938 33.203125 -0.0390625 38.296875 0.46875 C 39.035156 0.550781 39.738281 0.59375 40.40625 0.59375 Z M 20.265625 -3.109375 C 15.679688 -5.304688 12.78125 -6.617188 11.5625 -7.046875 C 10.351562 -7.472656 9.148438 -7.6875 7.953125 -7.6875 C 6.765625 -7.6875 5.816406 -7.265625 5.109375 -6.421875 C 4.398438 -5.585938 4.046875 -4.828125 4.046875 -4.140625 C 4.046875 -3.453125 4.203125 -2.796875 4.515625 -2.171875 C 5.378906 -0.410156 7.179688 0.46875 9.921875 0.46875 C 13.640625 0.46875 17.085938 -0.722656 20.265625 -3.109375 Z M 20.265625 -3.109375 "/></g></g></g><g fill="#e67e22" fill-opacity="1"><g transform="translate(201.915757, 228.182999)"><g><path d="M 5.9375 -9.046875 C 5.382812 -7.710938 5.109375 -6.222656 5.109375 -4.578125 C 5.109375 -3.484375 5.351562 -2.613281 5.84375 -1.96875 C 6.332031 -1.320312 7.023438 -1 7.921875 -1 C 11.492188 -1 14.726562 -4.347656 17.625 -11.046875 C 17.894531 -11.671875 18.226562 -11.941406 18.625 -11.859375 C 18.78125 -11.828125 18.859375 -11.726562 18.859375 -11.5625 C 18.859375 -11.40625 18.414062 -10.378906 17.53125 -8.484375 C 16.644531 -6.585938 15.753906 -5.050781 14.859375 -3.875 C 12.859375 -1.132812 10.390625 0.234375 7.453125 0.234375 C 5.890625 0.234375 4.5625 -0.269531 3.46875 -1.28125 C 2.375 -2.300781 1.828125 -3.691406 1.828125 -5.453125 C 1.828125 -7.222656 2.242188 -9.09375 3.078125 -11.0625 C 3.921875 -13.039062 5.066406 -14.878906 6.515625 -16.578125 C 7.960938 -18.285156 9.628906 -19.535156 11.515625 -20.328125 C 12.410156 -20.710938 13.269531 -20.90625 14.09375 -20.90625 C 14.914062 -20.90625 15.679688 -20.671875 16.390625 -20.203125 C 17.054688 -19.648438 17.390625 -19.046875 17.390625 -18.390625 C 17.390625 -16.035156 15.976562 -13.78125 13.15625 -11.625 C 12.289062 -10.957031 11.078125 -10.359375 9.515625 -9.828125 C 7.953125 -9.304688 6.757812 -9.046875 5.9375 -9.046875 Z M 15.796875 -18.4375 C 15.796875 -19.226562 15.484375 -19.625 14.859375 -19.625 C 13.765625 -19.625 12.101562 -18.269531 9.875 -15.5625 C 8.539062 -13.914062 7.363281 -12.078125 6.34375 -10.046875 C 7.007812 -10.046875 7.976562 -10.28125 9.25 -10.75 C 10.519531 -11.21875 11.625 -11.84375 12.5625 -12.625 C 14.71875 -14.46875 15.796875 -16.40625 15.796875 -18.4375 Z M 15.796875 -18.4375 "/></g></g></g><g fill="#e67e22" fill-opacity="1"><g transform="translate(216.364191, 228.182999)"><g><path d="M 21.203125 -15.921875 C 20.492188 -15.210938 19.492188 -13.613281 18.203125 -11.125 C 16.910156 -8.644531 16.132812 -6.785156 15.875 -5.546875 C 15.625 -4.316406 15.5 -3.316406 15.5 -2.546875 C 15.5 -1.785156 15.796875 -1.40625 16.390625 -1.40625 C 17.128906 -1.40625 18.046875 -2.09375 19.140625 -3.46875 C 20.753906 -5.457031 22.34375 -8.0625 23.90625 -11.28125 C 24.0625 -11.632812 24.238281 -11.828125 24.4375 -11.859375 C 24.75 -11.984375 24.90625 -11.867188 24.90625 -11.515625 C 24.90625 -11.316406 24.847656 -11.082031 24.734375 -10.8125 C 21.128906 -3.519531 18.09375 0.125 15.625 0.125 C 14.488281 0.125 13.566406 -0.425781 12.859375 -1.53125 C 12.503906 -2.113281 12.328125 -2.894531 12.328125 -3.875 C 12.328125 -4.851562 12.523438 -6.046875 12.921875 -7.453125 C 9.785156 -2.398438 7.082031 0.125 4.8125 0.125 C 4.1875 0.125 3.617188 -0.0703125 3.109375 -0.46875 C 1.929688 -1.289062 1.34375 -2.703125 1.34375 -4.703125 C 1.34375 -8.535156 3.007812 -12.429688 6.34375 -16.390625 C 8.21875 -18.578125 10.53125 -20.003906 13.28125 -20.671875 C 14.019531 -20.867188 14.722656 -20.96875 15.390625 -20.96875 C 17.191406 -20.96875 18.71875 -20.34375 19.96875 -19.09375 C 20.363281 -18.65625 20.484375 -18.238281 20.328125 -17.84375 C 20.171875 -17.457031 19.835938 -17.304688 19.328125 -17.390625 C 18.890625 -18.796875 17.945312 -19.5 16.5 -19.5 C 14.820312 -19.5 12.75 -18.164062 10.28125 -15.5 C 8.875 -13.9375 7.5625 -12.097656 6.34375 -9.984375 C 4.8125 -7.441406 4.046875 -5.40625 4.046875 -3.875 C 4.046875 -2.34375 4.535156 -1.578125 5.515625 -1.578125 C 7.867188 -1.578125 10.945312 -5.179688 14.75 -12.390625 C 15.488281 -13.835938 16.113281 -14.828125 16.625 -15.359375 C 17.132812 -15.890625 17.78125 -16.15625 18.5625 -16.15625 C 18.71875 -16.15625 19.117188 -16.09375 19.765625 -15.96875 C 20.410156 -15.851562 20.890625 -15.835938 21.203125 -15.921875 Z M 21.203125 -15.921875 "/></g></g></g><g fill="#e67e22" fill-opacity="1"><g transform="translate(236.9209, 228.182999)"><g><path d="M 1.296875 -3.40625 C 1.296875 -5.09375 2.019531 -7.128906 3.46875 -9.515625 C 2.84375 -9.515625 2.664062 -9.828125 2.9375 -10.453125 L 4 -12.515625 C 5.320312 -15.054688 6.414062 -17.207031 7.28125 -18.96875 C 7.675781 -19.789062 8.441406 -20.203125 9.578125 -20.203125 L 13.15625 -20.203125 C 11.75 -19.179688 10.328125 -17.210938 8.890625 -14.296875 C 7.460938 -11.378906 6.359375 -9.085938 5.578125 -7.421875 C 4.796875 -5.765625 4.40625 -4.503906 4.40625 -3.640625 C 4.40625 -2.773438 4.550781 -2.164062 4.84375 -1.8125 C 5.132812 -1.46875 5.535156 -1.296875 6.046875 -1.296875 C 6.796875 -1.296875 7.832031 -2.078125 9.15625 -3.640625 C 11.238281 -6.066406 14.15625 -11.175781 17.90625 -18.96875 C 18.34375 -19.789062 19.109375 -20.203125 20.203125 -20.203125 L 23.375 -20.203125 C 22.507812 -19.535156 21.832031 -18.847656 21.34375 -18.140625 C 20.851562 -17.441406 20.179688 -16.191406 19.328125 -14.390625 C 16.972656 -9.691406 15.660156 -6.578125 15.390625 -5.046875 C 15.273438 -4.503906 15.21875 -4 15.21875 -3.53125 C 15.21875 -2.269531 15.644531 -1.601562 16.5 -1.53125 C 18.613281 -1.53125 21.21875 -4.796875 24.3125 -11.328125 C 24.550781 -11.878906 24.785156 -12.097656 25.015625 -11.984375 C 25.253906 -11.867188 25.375 -11.710938 25.375 -11.515625 C 25.375 -11.316406 25.195312 -10.863281 24.84375 -10.15625 C 24.488281 -9.457031 24.144531 -8.773438 23.8125 -8.109375 C 23.476562 -7.441406 22.96875 -6.53125 22.28125 -5.375 C 21.601562 -4.21875 20.96875 -3.304688 20.375 -2.640625 C 18.851562 -0.921875 17.359375 -0.0625 15.890625 -0.0625 C 14.421875 -0.0625 13.410156 -0.707031 12.859375 -2 C 12.628906 -2.582031 12.515625 -3.320312 12.515625 -4.21875 C 12.515625 -5.125 12.707031 -6.242188 13.09375 -7.578125 C 10.238281 -2.566406 7.597656 -0.0625 5.171875 -0.0625 C 3.054688 -0.0625 1.820312 -0.941406 1.46875 -2.703125 C 1.351562 -2.898438 1.296875 -3.132812 1.296875 -3.40625 Z M 1.296875 -3.40625 "/></g></g></g><g fill="#e67e22" fill-opacity="1"><g transform="translate(257.888746, 228.182999)"><g><path d="M 1.875 -4.703125 C 1.875 -7.953125 3.441406 -13.394531 6.578125 -21.03125 L 3.53125 -21.03125 C 3.332031 -21.03125 3.203125 -21.132812 3.140625 -21.34375 C 3.078125 -21.5625 3.09375 -21.773438 3.1875 -21.984375 C 3.289062 -22.203125 3.441406 -22.3125 3.640625 -22.3125 L 7.171875 -22.3125 C 8.578125 -25.40625 9.882812 -27.988281 11.09375 -30.0625 C 12.3125 -32.144531 13.425781 -33.546875 14.4375 -34.265625 C 15.457031 -34.992188 16.191406 -35.359375 16.640625 -35.359375 C 17.097656 -35.359375 17.425781 -35.316406 17.625 -35.234375 C 18.519531 -34.804688 18.96875 -33.914062 18.96875 -32.5625 C 18.96875 -31.21875 18.515625 -29.582031 17.609375 -27.65625 C 16.710938 -25.738281 15.835938 -23.957031 14.984375 -22.3125 L 17.796875 -22.3125 C 17.992188 -22.3125 18.117188 -22.203125 18.171875 -21.984375 C 18.234375 -21.773438 18.210938 -21.5625 18.109375 -21.34375 C 18.015625 -21.132812 17.867188 -21.03125 17.671875 -21.03125 L 14.265625 -21.03125 C 12.117188 -17.382812 9.515625 -14.148438 6.453125 -11.328125 L 5.109375 -5.34375 C 4.992188 -4.832031 4.9375 -4.332031 4.9375 -3.84375 C 4.9375 -3.351562 5.070312 -2.851562 5.34375 -2.34375 C 5.613281 -1.832031 6.046875 -1.578125 6.640625 -1.578125 C 7.304688 -1.578125 8.050781 -1.816406 8.875 -2.296875 C 10.75 -3.703125 12.820312 -6.65625 15.09375 -11.15625 C 15.25 -11.507812 15.429688 -11.722656 15.640625 -11.796875 C 15.859375 -11.878906 15.988281 -11.832031 16.03125 -11.65625 C 16.070312 -11.476562 16.015625 -11.195312 15.859375 -10.8125 C 14.566406 -8.101562 13.546875 -6.179688 12.796875 -5.046875 C 10.679688 -1.640625 8.429688 0.0625 6.046875 0.0625 C 4.835938 0.0625 3.835938 -0.382812 3.046875 -1.28125 C 2.265625 -2.1875 1.875 -3.328125 1.875 -4.703125 Z M 13.6875 -22.3125 C 16.269531 -26.9375 17.5625 -30.148438 17.5625 -31.953125 C 17.5625 -32.734375 17.425781 -33.125 17.15625 -33.125 C 16.71875 -33.125 16.054688 -32.5 15.171875 -31.25 C 14.296875 -30 12.820312 -27.019531 10.75 -22.3125 Z M 12.921875 -21.03125 L 10.15625 -21.03125 C 9.6875 -19.925781 8.628906 -17.320312 6.984375 -13.21875 C 9.097656 -15.40625 11.078125 -18.007812 12.921875 -21.03125 Z M 12.921875 -21.03125 "/></g></g></g><g fill="#e67e22" fill-opacity="1"><g transform="translate(269.635444, 228.182999)"><g><path d="M -4.75 18.5625 C -6.476562 18.5625 -7.8125 18.195312 -8.75 17.46875 C -9.6875 16.75 -10.15625 15.878906 -10.15625 14.859375 C -10.15625 13.835938 -9.863281 12.679688 -9.28125 11.390625 C -8.257812 9.398438 -6.414062 7.796875 -3.75 6.578125 C -1.757812 5.640625 0.878906 4.769531 4.171875 3.96875 C 7.460938 3.164062 9.578125 2.625 10.515625 2.34375 C 11.921875 -0.113281 13.601562 -4.515625 15.5625 -10.859375 C 13.289062 -6.867188 11.390625 -4.070312 9.859375 -2.46875 C 8.335938 -0.863281 6.796875 -0.0625 5.234375 -0.0625 C 3.117188 -0.0625 1.882812 -0.941406 1.53125 -2.703125 C 1.375 -2.972656 1.332031 -3.378906 1.40625 -3.921875 C 1.488281 -4.472656 1.539062 -4.867188 1.5625 -5.109375 C 1.582031 -5.347656 1.707031 -5.726562 1.9375 -6.25 C 2.175781 -6.78125 2.332031 -7.164062 2.40625 -7.40625 C 2.84375 -8.300781 3.21875 -9.003906 3.53125 -9.515625 C 2.90625 -9.515625 2.726562 -9.828125 3 -10.453125 L 4.0625 -12.515625 C 5.382812 -15.054688 6.476562 -17.207031 7.34375 -18.96875 C 7.738281 -19.789062 8.503906 -20.203125 9.640625 -20.203125 L 13.21875 -20.203125 C 13.132812 -20.128906 12.9375 -19.972656 12.625 -19.734375 C 11.925781 -19.265625 11.398438 -18.71875 11.046875 -18.09375 C 9.640625 -15.664062 7.878906 -12.195312 5.765625 -7.6875 C 4.898438 -5.851562 4.46875 -4.503906 4.46875 -3.640625 C 4.46875 -2.773438 4.613281 -2.164062 4.90625 -1.8125 C 5.195312 -1.46875 5.597656 -1.296875 6.109375 -1.296875 C 6.859375 -1.296875 7.894531 -2.078125 9.21875 -3.640625 C 12 -6.890625 15.078125 -12 18.453125 -18.96875 C 18.878906 -19.789062 19.640625 -20.203125 20.734375 -20.203125 L 23.90625 -20.203125 C 22.882812 -19.492188 22.082031 -18.601562 21.5 -17.53125 C 20.914062 -16.457031 20.28125 -15 19.59375 -13.15625 C 18.90625 -11.3125 18.039062 -8.863281 17 -5.8125 C 15.96875 -2.757812 15.175781 -0.46875 14.625 1.0625 C 18.3125 -0.0390625 21.132812 -1.976562 23.09375 -4.75 C 23.945312 -5.96875 25.175781 -8.125 26.78125 -11.21875 C 27.0625 -11.769531 27.304688 -11.984375 27.515625 -11.859375 C 27.734375 -11.742188 27.84375 -11.585938 27.84375 -11.390625 C 27.84375 -11.191406 27.519531 -10.4375 26.875 -9.125 C 26.226562 -7.820312 25.570312 -6.609375 24.90625 -5.484375 C 24.238281 -4.367188 23.375 -3.222656 22.3125 -2.046875 C 21.257812 -0.878906 20.085938 0.046875 18.796875 0.734375 C 17.503906 1.421875 15.78125 2.15625 13.625 2.9375 C 10.613281 8.414062 7.582031 12.445312 4.53125 15.03125 C 1.664062 17.382812 -1.425781 18.5625 -4.75 18.5625 Z M -8.15625 12.75 C -8.59375 13.601562 -8.8125 14.390625 -8.8125 15.109375 C -8.8125 15.835938 -8.535156 16.398438 -7.984375 16.796875 C -7.429688 17.191406 -6.742188 17.390625 -5.921875 17.390625 C -3.648438 17.390625 -1.222656 16.222656 1.359375 13.890625 C 3.941406 11.554688 6.210938 9.0625 8.171875 6.40625 L 9.453125 4.234375 C 2.992188 5.910156 -1.070312 7.125 -2.75 7.875 C -5.257812 8.96875 -7.0625 10.59375 -8.15625 12.75 Z M -8.15625 12.75 "/></g></g></g><g fill="#e67e22" fill-opacity="1"><g transform="translate(138.415543, 254.7319)"><g><path d="M 0.421875 0 C 0.378906 0 0.359375 -0.0234375 0.359375 -0.078125 L 0.359375 -0.28125 C 0.359375 -0.332031 0.378906 -0.359375 0.421875 -0.359375 L 0.640625 -0.359375 C 1.140625 -0.359375 1.578125 -0.460938 1.953125 -0.671875 C 2.109375 -0.753906 2.234375 -0.890625 2.328125 -1.078125 C 2.429688 -1.265625 2.484375 -1.472656 2.484375 -1.703125 L 2.484375 -11 C 2.484375 -11.363281 2.25 -11.644531 1.78125 -11.84375 C 1.445312 -11.976562 1.097656 -12.046875 0.734375 -12.046875 L 0.53125 -12.046875 C 0.488281 -12.046875 0.46875 -12.070312 0.46875 -12.125 L 0.46875 -12.328125 C 0.46875 -12.378906 0.488281 -12.40625 0.53125 -12.40625 L 6.484375 -12.40625 C 6.535156 -12.40625 6.5625 -12.378906 6.5625 -12.328125 L 6.5625 -12.125 C 6.5625 -12.070312 6.535156 -12.046875 6.484375 -12.046875 L 6.109375 -12.046875 C 5.503906 -12.046875 4.972656 -11.960938 4.515625 -11.796875 C 4.378906 -11.742188 4.289062 -11.664062 4.25 -11.5625 C 4.21875 -11.457031 4.203125 -11.269531 4.203125 -11 L 4.203125 -1.25 C 4.210938 -1.144531 4.265625 -1.046875 4.359375 -0.953125 C 4.453125 -0.867188 4.554688 -0.828125 4.671875 -0.828125 L 8.140625 -0.828125 C 8.660156 -0.828125 9.175781 -1.140625 9.6875 -1.765625 C 9.820312 -1.921875 9.988281 -2.132812 10.1875 -2.40625 C 10.382812 -2.6875 10.507812 -2.84375 10.5625 -2.875 C 10.75 -3.019531 10.84375 -3.019531 10.84375 -2.875 C 10.84375 -2.832031 10.832031 -2.796875 10.8125 -2.765625 L 9.484375 -0.15625 C 9.429688 -0.0507812 9.367188 0 9.296875 0 Z M 0.421875 0 "/></g></g></g><g fill="#e67e22" fill-opacity="1"><g transform="translate(149.316074, 254.7319)"><g><path d="M 4.625 0 C 4.425781 0 4.328125 -0.0546875 4.328125 -0.171875 L 4.328125 -0.265625 C 4.328125 -0.359375 4.410156 -0.414062 4.578125 -0.4375 C 4.753906 -0.457031 4.867188 -0.46875 4.921875 -0.46875 C 5.367188 -0.519531 5.679688 -0.628906 5.859375 -0.796875 C 6.046875 -0.972656 6.140625 -1.234375 6.140625 -1.578125 L 6.140625 -4.5 C 6.140625 -4.539062 6.128906 -4.582031 6.109375 -4.625 L 2.515625 -10.359375 C 1.953125 -11.253906 1.394531 -11.769531 0.84375 -11.90625 C 0.8125 -11.914062 0.757812 -11.925781 0.6875 -11.9375 C 0.613281 -11.957031 0.441406 -11.988281 0.171875 -12.03125 C 0.078125 -12.050781 0.03125 -12.117188 0.03125 -12.234375 C 0.03125 -12.347656 0.078125 -12.40625 0.171875 -12.40625 L 5.203125 -12.40625 C 5.296875 -12.40625 5.34375 -12.34375 5.34375 -12.21875 C 5.34375 -12.101562 5.296875 -12.046875 5.203125 -12.046875 C 4.804688 -12.003906 4.546875 -11.960938 4.421875 -11.921875 C 4.117188 -11.816406 3.96875 -11.628906 3.96875 -11.359375 C 3.96875 -11.222656 4.003906 -11.097656 4.078125 -10.984375 L 7.0625 -6.234375 C 7.125 -6.140625 7.160156 -6.078125 7.171875 -6.046875 C 7.191406 -6.023438 7.222656 -6.015625 7.265625 -6.015625 C 7.316406 -6.015625 7.394531 -6.097656 7.5 -6.265625 L 9.875 -10.3125 C 9.945312 -10.445312 10.023438 -10.59375 10.109375 -10.75 C 10.203125 -10.914062 10.25 -11.085938 10.25 -11.265625 C 10.25 -11.691406 9.957031 -11.941406 9.375 -12.015625 C 9.164062 -12.046875 9.050781 -12.078125 9.03125 -12.109375 C 9.019531 -12.148438 9.015625 -12.195312 9.015625 -12.25 C 9.015625 -12.351562 9.0625 -12.40625 9.15625 -12.40625 L 13.265625 -12.40625 C 13.347656 -12.40625 13.390625 -12.363281 13.390625 -12.28125 C 13.390625 -12.195312 13.375 -12.140625 13.34375 -12.109375 C 13.320312 -12.078125 13.285156 -12.054688 13.234375 -12.046875 C 13.191406 -12.035156 13.144531 -12.023438 13.09375 -12.015625 C 13.039062 -12.003906 12.925781 -11.976562 12.75 -11.9375 C 12.34375 -11.832031 11.898438 -11.503906 11.421875 -10.953125 C 11.367188 -10.890625 11.335938 -10.851562 11.328125 -10.84375 L 7.859375 -4.859375 L 7.859375 -1.578125 C 7.859375 -1.265625 7.945312 -1.015625 8.125 -0.828125 C 8.300781 -0.648438 8.601562 -0.53125 9.03125 -0.46875 C 9.457031 -0.414062 9.671875 -0.347656 9.671875 -0.265625 L 9.671875 -0.171875 C 9.671875 -0.0546875 9.570312 0 9.375 0 Z M 4.625 0 "/></g></g></g><g fill="#e67e22" fill-opacity="1"><g transform="translate(162.750384, 254.7319)"><g><path d="M 0.59375 0 C 0.550781 0 0.53125 -0.0234375 0.53125 -0.078125 L 0.53125 -0.28125 C 0.53125 -0.332031 0.554688 -0.359375 0.609375 -0.359375 L 0.8125 -0.359375 C 1.132812 -0.359375 1.359375 -0.382812 1.484375 -0.4375 C 1.910156 -0.644531 2.125 -1.226562 2.125 -2.1875 L 2.125 -11.328125 C 2.125 -11.710938 1.742188 -11.945312 0.984375 -12.03125 C 0.816406 -12.039062 0.695312 -12.046875 0.625 -12.046875 C 0.5625 -12.046875 0.53125 -12.070312 0.53125 -12.125 L 0.53125 -12.328125 C 0.53125 -12.378906 0.550781 -12.40625 0.59375 -12.40625 L 3.8125 -12.40625 L 12.171875 -3.171875 C 12.191406 -3.140625 12.207031 -3.117188 12.21875 -3.109375 C 12.238281 -3.097656 12.257812 -3.09375 12.28125 -3.09375 C 12.3125 -3.09375 12.328125 -3.117188 12.328125 -3.171875 L 12.328125 -9.234375 C 12.328125 -10.398438 12.226562 -11.160156 12.03125 -11.515625 C 11.84375 -11.867188 11.453125 -12.046875 10.859375 -12.046875 L 10.421875 -12.046875 C 10.367188 -12.046875 10.34375 -12.070312 10.34375 -12.125 L 10.34375 -12.328125 C 10.34375 -12.378906 10.367188 -12.40625 10.421875 -12.40625 L 14.984375 -12.40625 C 15.035156 -12.40625 15.0625 -12.378906 15.0625 -12.328125 L 15.0625 -12.125 C 15.0625 -12.070312 14.972656 -12.046875 14.796875 -12.046875 C 14.628906 -12.046875 14.347656 -11.945312 13.953125 -11.75 C 13.554688 -11.550781 13.359375 -11.304688 13.359375 -11.015625 L 13.359375 -0.25 C 13.359375 -0.125 13.335938 -0.0351562 13.296875 0.015625 C 13.265625 0.078125 13.179688 0.109375 13.046875 0.109375 C 12.921875 0.109375 12.820312 0.0820312 12.75 0.03125 C 12.6875 -0.0195312 12.613281 -0.0976562 12.53125 -0.203125 L 3.453125 -10.25 C 3.398438 -10.3125 3.347656 -10.34375 3.296875 -10.34375 C 3.265625 -10.34375 3.25 -10.3125 3.25 -10.25 L 3.25 -1.484375 C 3.25 -0.941406 3.671875 -0.585938 4.515625 -0.421875 C 4.753906 -0.378906 4.9375 -0.359375 5.0625 -0.359375 C 5.1875 -0.359375 5.25 -0.332031 5.25 -0.28125 L 5.25 -0.078125 C 5.25 -0.0234375 5.222656 0 5.171875 0 Z M 0.59375 0 "/></g></g></g><g fill="#e67e22" fill-opacity="1"><g transform="translate(178.12022, 254.7319)"><g><path d="M 5.65625 -0.078125 C 5.65625 -0.0234375 5.628906 0 5.578125 0 L 0.40625 0 C 0.375 0 0.359375 -0.0234375 0.359375 -0.078125 L 0.359375 -0.234375 C 0.359375 -0.285156 0.476562 -0.3125 0.71875 -0.3125 C 0.96875 -0.320312 1.273438 -0.414062 1.640625 -0.59375 C 2.003906 -0.769531 2.1875 -1.039062 2.1875 -1.40625 L 2.1875 -11 C 2.1875 -11.65625 1.597656 -12.019531 0.421875 -12.09375 C 0.378906 -12.09375 0.359375 -12.117188 0.359375 -12.171875 L 0.359375 -12.328125 C 0.359375 -12.378906 0.375 -12.40625 0.40625 -12.40625 L 5.578125 -12.40625 C 5.628906 -12.40625 5.65625 -12.378906 5.65625 -12.328125 L 5.65625 -12.171875 C 5.65625 -12.128906 5.53125 -12.109375 5.28125 -12.109375 C 5.039062 -12.109375 4.773438 -12.039062 4.484375 -11.90625 C 4.085938 -11.71875 3.890625 -11.410156 3.890625 -10.984375 L 3.890625 -7.09375 C 3.890625 -6.582031 3.941406 -6.328125 4.046875 -6.328125 C 4.296875 -6.328125 4.613281 -6.484375 5 -6.796875 C 5.382812 -7.117188 5.726562 -7.445312 6.03125 -7.78125 C 6.332031 -8.125 6.632812 -8.53125 6.9375 -9 C 7.238281 -9.46875 7.445312 -9.785156 7.5625 -9.953125 C 8 -10.578125 8.21875 -11.046875 8.21875 -11.359375 C 8.21875 -11.671875 8.082031 -11.878906 7.8125 -11.984375 C 7.644531 -12.054688 7.394531 -12.09375 7.0625 -12.09375 L 6.96875 -12.09375 C 6.925781 -12.09375 6.90625 -12.117188 6.90625 -12.171875 L 6.90625 -12.328125 C 6.90625 -12.378906 6.925781 -12.40625 6.96875 -12.40625 L 12.0625 -12.40625 C 12.101562 -12.40625 12.125 -12.378906 12.125 -12.328125 L 12.125 -12.171875 C 12.125 -12.097656 12.09375 -12.0625 12.03125 -12.0625 C 11.28125 -12.039062 10.726562 -11.941406 10.375 -11.765625 C 10.03125 -11.585938 9.753906 -11.394531 9.546875 -11.1875 C 9.335938 -10.988281 9.109375 -10.679688 8.859375 -10.265625 C 8.109375 -8.992188 7.363281 -7.976562 6.625 -7.21875 C 6.3125 -6.894531 6.144531 -6.691406 6.125 -6.609375 C 6.15625 -6.554688 6.398438 -6.320312 6.859375 -5.90625 C 7.984375 -4.875 9.160156 -3.476562 10.390625 -1.71875 C 10.859375 -1.039062 11.46875 -0.625 12.21875 -0.46875 C 12.71875 -0.351562 13.03125 -0.296875 13.15625 -0.296875 C 13.289062 -0.296875 13.359375 -0.269531 13.359375 -0.21875 L 13.359375 -0.078125 C 13.359375 -0.0234375 13.335938 0 13.296875 0 L 7.53125 0 C 7.488281 0 7.46875 -0.0234375 7.46875 -0.078125 L 7.46875 -0.234375 C 7.46875 -0.285156 7.566406 -0.316406 7.765625 -0.328125 C 8.429688 -0.390625 8.765625 -0.585938 8.765625 -0.921875 C 8.722656 -1.242188 8.132812 -2.050781 7 -3.34375 C 6.789062 -3.570312 6.570312 -3.828125 6.34375 -4.109375 C 5.457031 -5.210938 4.726562 -5.765625 4.15625 -5.765625 L 3.984375 -5.765625 C 3.921875 -5.765625 3.890625 -5.722656 3.890625 -5.640625 L 3.890625 -1.515625 C 3.890625 -0.703125 4.453125 -0.296875 5.578125 -0.296875 C 5.628906 -0.296875 5.65625 -0.269531 5.65625 -0.21875 Z M 5.65625 -0.078125 "/></g></g></g><g fill="#e67e22" fill-opacity="1"><g transform="translate(191.528131, 254.7319)"><g/></g></g><g fill="#e67e22" fill-opacity="1"><g transform="translate(196.366944, 254.7319)"><g><path d="M 7.421875 -12.296875 C 7.484375 -12.296875 7.515625 -12.234375 7.515625 -12.109375 L 7.734375 -10.234375 C 7.765625 -10.109375 7.78125 -10.03125 7.78125 -10 C 7.78125 -9.96875 7.734375 -9.953125 7.640625 -9.953125 C 7.546875 -9.953125 7.488281 -9.960938 7.46875 -9.984375 C 7.445312 -10.015625 7.421875 -10.054688 7.390625 -10.109375 C 7.367188 -10.171875 7.34375 -10.234375 7.3125 -10.296875 C 7.28125 -10.367188 7.25 -10.441406 7.21875 -10.515625 C 7.09375 -10.785156 6.894531 -11.050781 6.625 -11.3125 C 5.988281 -11.9375 5.265625 -12.25 4.453125 -12.25 C 3.960938 -12.25 3.5 -12.085938 3.0625 -11.765625 C 2.632812 -11.453125 2.421875 -11.078125 2.421875 -10.640625 C 2.421875 -10.210938 2.5 -9.835938 2.65625 -9.515625 C 2.820312 -9.203125 3.035156 -8.910156 3.296875 -8.640625 C 3.554688 -8.378906 3.859375 -8.125 4.203125 -7.875 C 4.546875 -7.625 4.894531 -7.375 5.25 -7.125 C 6.175781 -6.476562 6.835938 -5.921875 7.234375 -5.453125 C 7.847656 -4.734375 8.179688 -3.929688 8.234375 -3.046875 C 8.234375 -2.046875 7.847656 -1.25 7.078125 -0.65625 C 6.316406 -0.0625 5.429688 0.234375 4.421875 0.234375 C 3.765625 0.234375 3.242188 0.164062 2.859375 0.03125 C 2.472656 -0.09375 2.207031 -0.179688 2.0625 -0.234375 C 1.914062 -0.296875 1.804688 -0.328125 1.734375 -0.328125 C 1.671875 -0.328125 1.632812 -0.328125 1.625 -0.328125 L 1.1875 -0.234375 C 1.113281 -0.234375 1.066406 -0.296875 1.046875 -0.421875 C 0.878906 -1.878906 0.796875 -2.648438 0.796875 -2.734375 C 0.796875 -2.828125 0.800781 -2.890625 0.8125 -2.921875 C 0.820312 -2.953125 0.863281 -2.96875 0.9375 -2.96875 C 1.09375 -2.96875 1.238281 -2.734375 1.375 -2.265625 C 2 -0.953125 3.023438 -0.296875 4.453125 -0.296875 C 5.109375 -0.296875 5.664062 -0.492188 6.125 -0.890625 C 6.59375 -1.285156 6.828125 -1.804688 6.828125 -2.453125 C 6.828125 -3.460938 6.21875 -4.410156 5 -5.296875 C 4.65625 -5.546875 4.15625 -5.890625 3.5 -6.328125 C 2.851562 -6.765625 2.335938 -7.203125 1.953125 -7.640625 C 1.347656 -8.328125 1.046875 -9.085938 1.046875 -9.921875 C 1.046875 -10.753906 1.378906 -11.4375 2.046875 -11.96875 C 2.710938 -12.5 3.476562 -12.765625 4.34375 -12.765625 C 4.78125 -12.765625 5.265625 -12.6875 5.796875 -12.53125 C 6.335938 -12.382812 6.71875 -12.285156 6.9375 -12.234375 Z M 7.421875 -12.296875 "/></g></g></g><g fill="#e67e22" fill-opacity="1"><g transform="translate(205.39353, 254.7319)"><g><path d="M 0.875 0 C 0.832031 0 0.8125 -0.0546875 0.8125 -0.171875 L 0.8125 -0.28125 C 0.8125 -0.332031 0.835938 -0.359375 0.890625 -0.359375 C 0.953125 -0.359375 1.039062 -0.375 1.15625 -0.40625 C 1.269531 -0.4375 1.359375 -0.457031 1.421875 -0.46875 C 2.015625 -0.601562 2.3125 -0.945312 2.3125 -1.5 L 2.3125 -10.78125 C 2.3125 -11.320312 2.210938 -11.664062 2.015625 -11.8125 C 1.816406 -11.96875 1.457031 -12.046875 0.9375 -12.046875 L 0.53125 -12.046875 C 0.414062 -12.046875 0.359375 -12.113281 0.359375 -12.25 C 0.359375 -12.332031 0.394531 -12.382812 0.46875 -12.40625 L 0.53125 -12.40625 L 5.46875 -12.53125 L 6.34375 -12.53125 C 7.394531 -12.46875 8.269531 -12.09375 8.96875 -11.40625 C 9.664062 -10.71875 10.015625 -9.894531 10.015625 -8.9375 C 10.015625 -7.976562 9.671875 -7.109375 8.984375 -6.328125 C 8.691406 -5.984375 8.359375 -5.703125 7.984375 -5.484375 C 7.609375 -5.265625 7.238281 -5.15625 6.875 -5.15625 L 4.234375 -5.265625 L 4.15625 -5.265625 C 4.070312 -5.265625 4.03125 -5.222656 4.03125 -5.140625 L 4.03125 -1.515625 C 4.03125 -1.191406 4.117188 -0.953125 4.296875 -0.796875 C 4.472656 -0.648438 4.84375 -0.535156 5.40625 -0.453125 C 5.488281 -0.441406 5.613281 -0.421875 5.78125 -0.390625 C 5.945312 -0.367188 6.054688 -0.359375 6.109375 -0.359375 C 6.171875 -0.359375 6.203125 -0.332031 6.203125 -0.28125 L 6.203125 -0.078125 C 6.203125 -0.0234375 6.179688 0 6.140625 0 Z M 4.734375 -12.09375 C 4.671875 -12.09375 4.597656 -12.085938 4.515625 -12.078125 C 4.429688 -12.078125 4.328125 -12.070312 4.203125 -12.0625 C 4.085938 -12.0625 4.03125 -12.015625 4.03125 -11.921875 L 4.03125 -6.25 L 4.046875 -5.984375 C 4.066406 -5.867188 4.125 -5.804688 4.21875 -5.796875 L 5.109375 -5.75 C 6.054688 -5.75 6.816406 -6.0625 7.390625 -6.6875 C 7.972656 -7.320312 8.265625 -8.117188 8.265625 -9.078125 C 8.265625 -10.035156 7.984375 -10.78125 7.421875 -11.3125 C 6.859375 -11.84375 6.113281 -12.109375 5.1875 -12.109375 C 5.101562 -12.109375 5.023438 -12.101562 4.953125 -12.09375 C 4.878906 -12.09375 4.804688 -12.09375 4.734375 -12.09375 Z M 4.734375 -12.09375 "/></g></g></g><g fill="#e67e22" fill-opacity="1"><g transform="translate(216.047722, 254.7319)"><g><path d="M 4.6875 -0.078125 C 4.6875 -0.0234375 4.660156 0 4.609375 0 L 0.109375 0 C 0.0664062 0 0.046875 -0.0234375 0.046875 -0.078125 L 0.046875 -0.28125 C 0.046875 -0.332031 0.0820312 -0.359375 0.15625 -0.359375 C 0.957031 -0.390625 1.5 -0.816406 1.78125 -1.640625 L 5.375 -12.03125 C 5.382812 -12.039062 5.390625 -12.050781 5.390625 -12.0625 L 5.28125 -12.359375 C 5.28125 -12.390625 5.296875 -12.40625 5.328125 -12.40625 L 7.078125 -12.40625 C 7.085938 -12.394531 7.101562 -12.382812 7.125 -12.375 C 7.144531 -12.375 7.160156 -12.359375 7.171875 -12.328125 L 10.90625 -1.890625 C 10.976562 -1.734375 11.039062 -1.585938 11.09375 -1.453125 C 11.144531 -1.328125 11.203125 -1.210938 11.265625 -1.109375 C 11.410156 -0.867188 11.644531 -0.679688 11.96875 -0.546875 C 12.238281 -0.421875 12.484375 -0.359375 12.703125 -0.359375 C 12.742188 -0.359375 12.765625 -0.328125 12.765625 -0.265625 L 12.765625 -0.078125 C 12.765625 -0.0234375 12.742188 0 12.703125 0 L 7.3125 0 C 7.269531 0 7.25 -0.0234375 7.25 -0.078125 L 7.25 -0.28125 C 7.25 -0.332031 7.359375 -0.363281 7.578125 -0.375 C 7.796875 -0.382812 7.972656 -0.394531 8.109375 -0.40625 C 8.921875 -0.488281 9.328125 -0.765625 9.328125 -1.234375 C 9.328125 -1.265625 9.320312 -1.304688 9.3125 -1.359375 L 7.984375 -5.109375 C 7.984375 -5.117188 7.972656 -5.144531 7.953125 -5.1875 C 7.878906 -5.382812 7.753906 -5.484375 7.578125 -5.484375 L 4.453125 -5.484375 C 4.285156 -5.484375 4.148438 -5.382812 4.046875 -5.1875 C 4.023438 -5.144531 4.015625 -5.125 4.015625 -5.125 L 2.703125 -1.265625 L 2.703125 -1.171875 C 2.703125 -1.023438 2.78125 -0.890625 2.9375 -0.765625 C 3.289062 -0.492188 3.769531 -0.359375 4.375 -0.359375 L 4.609375 -0.359375 C 4.660156 -0.359375 4.6875 -0.332031 4.6875 -0.28125 Z M 7.28125 -6.453125 C 7.382812 -6.453125 7.4375 -6.5 7.4375 -6.59375 C 7.4375 -6.632812 7.425781 -6.6875 7.40625 -6.75 L 6.09375 -10.359375 C 6.039062 -10.515625 6 -10.59375 5.96875 -10.59375 C 5.9375 -10.59375 5.890625 -10.507812 5.828125 -10.34375 L 4.59375 -6.75 C 4.570312 -6.6875 4.5625 -6.617188 4.5625 -6.546875 C 4.5625 -6.484375 4.601562 -6.453125 4.6875 -6.453125 Z M 7.28125 -6.453125 "/></g></g></g></svg>