<svg xmlns="http://www.w3.org/2000/svg" xmlns:xlink="http://www.w3.org/1999/xlink" width="500" zoomAndPan="magnify" viewBox="0 0 375 374.999991" height="500" preserveAspectRatio="xMidYMid meet" version="1.0"><defs><g/><clipPath id="944002d99a"><path d="M 68.117188 68.117188 L 306.882812 68.117188 L 306.882812 306.882812 L 68.117188 306.882812 Z M 68.117188 68.117188 " clip-rule="nonzero"/></clipPath><clipPath id="586c5e5cd0"><path d="M 187.5 68.117188 C 121.566406 68.117188 68.117188 121.566406 68.117188 187.5 C 68.117188 253.433594 121.566406 306.882812 187.5 306.882812 C 253.433594 306.882812 306.882812 253.433594 306.882812 187.5 C 306.882812 121.566406 253.433594 68.117188 187.5 68.117188 Z M 187.5 68.117188 " clip-rule="nonzero"/></clipPath><clipPath id="72f1f09b7d"><path d="M 68.117188 68.117188 L 306.617188 68.117188 L 306.617188 306.617188 L 68.117188 306.617188 Z M 68.117188 68.117188 " clip-rule="nonzero"/></clipPath><clipPath id="cecbf24ea4"><path d="M 187.496094 68.117188 C 121.5625 68.117188 68.117188 121.5625 68.117188 187.496094 C 68.117188 253.425781 121.5625 306.875 187.496094 306.875 C 253.425781 306.875 306.875 253.425781 306.875 187.496094 C 306.875 121.5625 253.425781 68.117188 187.496094 68.117188 Z M 187.496094 68.117188 " clip-rule="nonzero"/></clipPath><clipPath id="f9a2f6cdca"><path d="M 115.726562 115.726562 L 259.273438 115.726562 L 259.273438 259.273438 L 115.726562 259.273438 Z M 115.726562 115.726562 " clip-rule="nonzero"/></clipPath><clipPath id="d8289ebfab"><path d="M 187.5 115.726562 C 147.859375 115.726562 115.726562 147.859375 115.726562 187.5 C 115.726562 227.140625 147.859375 259.273438 187.5 259.273438 C 227.140625 259.273438 259.273438 227.140625 259.273438 187.5 C 259.273438 147.859375 227.140625 115.726562 187.5 115.726562 Z M 187.5 115.726562 " clip-rule="nonzero"/></clipPath><clipPath id="ea48953ea0"><path d="M 115.726562 115.726562 L 258.976562 115.726562 L 258.976562 258.976562 L 115.726562 258.976562 Z M 115.726562 115.726562 " clip-rule="nonzero"/></clipPath><clipPath id="d9b35ca7b9"><path d="M 187.5 115.726562 C 147.859375 115.726562 115.726562 147.859375 115.726562 187.5 C 115.726562 227.136719 147.859375 259.269531 187.5 259.269531 C 227.136719 259.269531 259.269531 227.136719 259.269531 187.5 C 259.269531 147.859375 227.136719 115.726562 187.5 115.726562 Z M 187.5 115.726562 " clip-rule="nonzero"/></clipPath><clipPath id="a1c06a045b"><path d="M 128.695312 121.726562 L 247.945312 121.726562 L 247.945312 252.976562 L 128.695312 252.976562 Z M 128.695312 121.726562 " clip-rule="nonzero"/></clipPath></defs><g clip-path="url(#944002d99a)"><g clip-path="url(#586c5e5cd0)"><path fill="#ffffff" d="M 68.117188 68.117188 L 306.882812 68.117188 L 306.882812 306.882812 L 68.117188 306.882812 Z M 68.117188 68.117188 " fill-opacity="1" fill-rule="nonzero"/></g></g><g clip-path="url(#72f1f09b7d)"><g clip-path="url(#cecbf24ea4)"><path stroke-linecap="butt" transform="matrix(0.75, 0, 0, 0.75, 68.115454, 68.115449)" fill="none" stroke-linejoin="miter" d="M 159.174197 0.00231783 C 71.262733 0.00231783 0.00231183 71.262739 0.00231183 159.174203 C 0.00231183 247.080459 71.262733 318.346089 159.174197 318.346089 C 247.080453 318.346089 318.346083 247.080459 318.346083 159.174203 C 318.346083 71.262739 247.080453 0.00231783 159.174197 0.00231783 Z M 159.174197 0.00231783 " stroke="#000000" stroke-width="4" stroke-opacity="1" stroke-miterlimit="4"/></g></g><g fill="#000000" fill-opacity="1"><g transform="translate(150.692497, 108.478559)"><g><path d="M 10.296875 -7.570312 L 4.023438 -5.269531 L -1.277344 -19.722656 C -1.316406 -19.828125 -1.457031 -19.890625 -1.585938 -19.84375 L -4.542969 -18.761719 C -4.695312 -18.703125 -4.761719 -18.5625 -4.722656 -18.460938 L 1.726562 -0.867188 C 1.761719 -0.761719 1.902344 -0.699219 2.058594 -0.753906 L 11.523438 -4.222656 C 11.679688 -4.28125 11.742188 -4.421875 11.707031 -4.523438 L 10.632812 -7.457031 C 10.59375 -7.558594 10.453125 -7.625 10.296875 -7.570312 Z M 10.296875 -7.570312 "/></g></g></g><g fill="#000000" fill-opacity="1"><g transform="translate(165.554268, 103.045358)"><g><path d="M 14.296875 -21.523438 L 10.503906 -20.957031 C 10.449219 -20.949219 10.34375 -20.90625 10.324219 -20.847656 L 6.742188 -13.859375 L 1.273438 -19.496094 C 1.238281 -19.546875 1.097656 -19.554688 1.046875 -19.546875 L -2.722656 -18.984375 C -2.964844 -18.949219 -3.046875 -18.742188 -2.886719 -18.601562 C -0.128906 -15.714844 2.710938 -12.84375 5.472656 -9.929688 L 6.769531 -1.230469 C 6.785156 -1.121094 6.910156 -1.03125 7.074219 -1.054688 L 10.160156 -1.515625 C 10.324219 -1.539062 10.417969 -1.664062 10.398438 -1.773438 L 9.101562 -10.472656 L 14.566406 -21.203125 C 14.675781 -21.386719 14.539062 -21.558594 14.296875 -21.523438 Z M 14.296875 -21.523438 "/></g></g></g><g fill="#000000" fill-opacity="1"><g transform="translate(184.959558, 100.224331)"><g><path d="M 18.054688 1.425781 L 19.753906 -17.238281 C 19.765625 -17.347656 19.664062 -17.464844 19.5 -17.480469 L 16.417969 -17.761719 C 16.253906 -17.777344 16.136719 -17.679688 16.125 -17.570312 L 14.992188 -5.128906 L 7.324219 -18.507812 C 7.304688 -18.566406 7.167969 -18.605469 7.113281 -18.609375 L 3.949219 -18.898438 C 3.8125 -18.910156 3.695312 -18.8125 3.683594 -18.703125 L 1.984375 -0.0390625 C 1.972656 0.0703125 2.074219 0.1875 2.210938 0.203125 L 5.347656 0.488281 C 5.511719 0.503906 5.628906 0.402344 5.640625 0.292969 L 6.773438 -12.148438 L 14.414062 1.230469 C 14.4375 1.289062 14.570312 1.328125 14.625 1.332031 L 17.761719 1.617188 C 17.925781 1.632812 18.046875 1.535156 18.054688 1.425781 Z M 18.054688 1.425781 "/></g></g></g><g fill="#000000" fill-opacity="1"><g transform="translate(207.060225, 102.625746)"><g><path d="M 12.074219 -5.828125 L 22.347656 -12.242188 C 22.558594 -12.34375 22.492188 -12.570312 22.257812 -12.648438 L 18.550781 -13.917969 C 18.5 -13.9375 18.351562 -13.929688 18.316406 -13.914062 L 8.632812 -7.875 L 11.457031 -16.117188 C 11.492188 -16.222656 11.421875 -16.359375 11.292969 -16.40625 L 8.3125 -17.425781 C 8.15625 -17.476562 8.015625 -17.410156 7.980469 -17.304688 L 1.910156 0.421875 C 1.875 0.527344 1.945312 0.664062 2.097656 0.71875 L 5.082031 1.738281 C 5.210938 1.785156 5.347656 1.714844 5.382812 1.613281 L 7.035156 -3.210938 C 7.695312 -3.53125 8.367188 -3.96875 8.976562 -4.3125 L 12.027344 4.03125 C 12.042969 4.066406 12.15625 4.164062 12.207031 4.179688 L 16.097656 5.511719 C 16.328125 5.589844 16.519531 5.453125 16.417969 5.246094 Z M 12.074219 -5.828125 "/></g></g></g><g fill="#000000" fill-opacity="1"><g transform="translate(126.464182, 270.692415)"><g><path d="M 14.722656 -8.871094 L 16.171875 -7.792969 C 16.304688 -7.695312 16.460938 -7.71875 16.523438 -7.808594 L 18.21875 -10.097656 C 18.285156 -10.183594 18.261719 -10.339844 18.128906 -10.4375 L 12.253906 -14.789062 C 12.121094 -14.886719 11.96875 -14.867188 11.902344 -14.777344 L 10.207031 -12.488281 C 10.140625 -12.398438 10.164062 -12.246094 10.296875 -12.148438 L 11.769531 -11.054688 L 4.269531 -0.929688 L 2.707031 -2.085938 C 2.574219 -2.183594 2.421875 -2.164062 2.355469 -2.074219 L 0.660156 0.214844 C 0.59375 0.304688 0.617188 0.457031 0.75 0.554688 L 6.800781 5.039062 C 6.933594 5.136719 7.085938 5.113281 7.152344 5.027344 L 8.847656 2.738281 C 8.914062 2.648438 8.890625 2.496094 8.757812 2.398438 L 7.21875 1.257812 Z M 14.722656 -8.871094 "/></g></g></g><g fill="#000000" fill-opacity="1"><g transform="translate(137.501894, 279.005288)"><g><path d="M 16.460938 7.554688 L 24.480469 -9.382812 C 24.527344 -9.480469 24.476562 -9.628906 24.328125 -9.699219 L 21.53125 -11.023438 C 21.382812 -11.09375 21.234375 -11.042969 21.1875 -10.941406 L 15.839844 0.347656 L 13.25 -14.855469 C 13.25 -14.914062 13.136719 -15 13.085938 -15.023438 L 10.214844 -16.382812 C 10.089844 -16.441406 9.945312 -16.390625 9.898438 -16.289062 L 1.875 0.644531 C 1.828125 0.746094 1.882812 0.890625 2.003906 0.949219 L 4.851562 2.296875 C 5 2.367188 5.148438 2.316406 5.195312 2.21875 L 10.542969 -9.074219 L 13.109375 6.117188 C 13.109375 6.179688 13.222656 6.261719 13.273438 6.285156 L 16.121094 7.632812 C 16.269531 7.703125 16.414062 7.652344 16.460938 7.554688 Z M 16.460938 7.554688 "/></g></g></g><g fill="#000000" fill-opacity="1"><g transform="translate(159.995481, 288.627914)"><g/></g></g><g fill="#000000" fill-opacity="1"><g transform="translate(173.186837, 292.014084)"><g><path d="M 17.476562 -18.136719 L 14.359375 -18.328125 C 14.195312 -18.339844 14.078125 -18.238281 14.074219 -18.128906 L 13.609375 -10.582031 L 6.363281 -11.027344 L 6.828125 -18.574219 C 6.832031 -18.683594 6.730469 -18.800781 6.566406 -18.808594 L 3.449219 -19.003906 C 3.285156 -19.011719 3.167969 -18.910156 3.164062 -18.800781 L 2.007812 -0.0976562 C 2.003906 0.0117188 2.105469 0.128906 2.269531 0.140625 L 5.386719 0.332031 C 5.550781 0.34375 5.667969 0.238281 5.675781 0.128906 L 6.140625 -7.445312 L 13.386719 -7 L 12.921875 0.578125 C 12.914062 0.6875 13.015625 0.800781 13.179688 0.8125 L 16.296875 1.003906 C 16.460938 1.015625 16.578125 0.910156 16.585938 0.800781 L 17.738281 -17.902344 C 17.746094 -18.011719 17.640625 -18.128906 17.476562 -18.136719 Z M 17.476562 -18.136719 "/></g></g></g><g fill="#000000" fill-opacity="1"><g transform="translate(196.341979, 292.860613)"><g><path d="M 7.601562 -6.457031 C 11.519531 -7.121094 14.191406 -10.855469 13.53125 -14.746094 C 12.878906 -18.609375 9.117188 -21.277344 5.199219 -20.613281 C 1.285156 -19.949219 -1.386719 -16.1875 -0.730469 -12.324219 C -0.0703125 -8.4375 3.683594 -5.792969 7.601562 -6.457031 Z M 5.792969 -17.128906 C 7.765625 -17.460938 9.601562 -16.132812 9.941406 -14.136719 C 10.285156 -12.109375 8.984375 -10.277344 7.011719 -9.941406 C 5.066406 -9.613281 3.207031 -10.910156 2.863281 -12.933594 C 2.523438 -14.933594 3.847656 -16.796875 5.792969 -17.128906 Z M 14.710938 -2.71875 L 14.195312 -5.769531 C 14.175781 -5.878906 14.050781 -5.96875 13.886719 -5.941406 L 1.703125 -3.875 C 1.542969 -3.847656 1.453125 -3.71875 1.472656 -3.613281 L 1.988281 -0.558594 C 2.007812 -0.453125 2.132812 -0.363281 2.296875 -0.390625 L 14.476562 -2.457031 C 14.640625 -2.484375 14.730469 -2.609375 14.710938 -2.71875 Z M 14.710938 -2.71875 "/></g></g></g><g fill="#000000" fill-opacity="1"><g transform="translate(217.89754, 288.834068)"><g><path d="M 8.796875 -24.648438 L -5.527344 -18.496094 C -5.65625 -18.445312 -5.710938 -18.300781 -5.667969 -18.199219 L -1.246094 -7.902344 C -1.171875 -7.726562 -0.410156 -6.027344 1.179688 -4.679688 C 3.4375 -2.757812 6.324219 -2.417969 9.320312 -3.707031 C 12.316406 -4.992188 14.023438 -7.335938 14.21875 -10.28125 C 14.339844 -12.359375 13.632812 -14.082031 13.554688 -14.261719 L 9.132812 -24.554688 C 9.089844 -24.65625 8.945312 -24.714844 8.796875 -24.648438 Z M 10.570312 -10.382812 C 10.441406 -8.808594 9.578125 -7.691406 7.917969 -6.976562 C 6.253906 -6.265625 4.851562 -6.40625 3.621094 -7.398438 C 2.613281 -8.21875 2.101562 -9.339844 2.101562 -9.339844 L -1.109375 -16.816406 L 6.996094 -20.296875 L 10.195312 -12.847656 C 10.207031 -12.820312 10.667969 -11.679688 10.570312 -10.382812 Z M 10.570312 -10.382812 "/></g></g></g><g fill="#000000" fill-opacity="1"><g transform="translate(240.089341, 278.38719)"><g><path d="M 9.757812 -7.222656 L 7.945312 -9.765625 C 7.882812 -9.855469 7.726562 -9.878906 7.59375 -9.785156 L 2.773438 -6.351562 L -1.113281 -22.382812 C -1.144531 -22.566406 -1.3125 -22.613281 -1.492188 -22.488281 L -10.371094 -16.160156 C -10.503906 -16.0625 -10.53125 -15.910156 -10.464844 -15.820312 L -8.652344 -13.277344 C -8.589844 -13.1875 -8.4375 -13.164062 -8.304688 -13.257812 L -3.484375 -16.691406 L 0.40625 -0.660156 C 0.433594 -0.476562 0.601562 -0.429688 0.78125 -0.554688 L 9.660156 -6.882812 C 9.796875 -6.980469 9.820312 -7.132812 9.757812 -7.222656 Z M 9.757812 -7.222656 "/></g></g></g><g clip-path="url(#f9a2f6cdca)"><g clip-path="url(#d8289ebfab)"><path fill="#000000" d="M 115.726562 115.726562 L 259.273438 115.726562 L 259.273438 259.273438 L 115.726562 259.273438 Z M 115.726562 115.726562 " fill-opacity="1" fill-rule="nonzero"/></g></g><g clip-path="url(#ea48953ea0)"><g clip-path="url(#d9b35ca7b9)"><path stroke-linecap="butt" transform="matrix(0.75, 0, 0, 0.75, 115.727275, 115.72727)" fill="none" stroke-linejoin="miter" d="M 95.696974 -0.000943334 C 42.842803 -0.000943334 -0.000949334 42.842809 -0.000949334 95.69698 C -0.000949334 148.545941 42.842803 191.389694 95.696974 191.389694 C 148.545935 191.389694 191.389688 148.545941 191.389688 95.69698 C 191.389688 42.842809 148.545935 -0.000943334 95.696974 -0.000943334 Z M 95.696974 -0.000943334 " stroke="#000000" stroke-width="4" stroke-opacity="1" stroke-miterlimit="4"/></g></g><path fill="#ffffff" d="M 194.574219 225.90625 C 194.574219 226.148438 194.535156 226.382812 194.453125 226.617188 C 194.371094 226.851562 194.25 227.078125 194.09375 227.300781 C 193.933594 227.519531 193.738281 227.730469 193.507812 227.929688 C 193.277344 228.125 193.015625 228.308594 192.71875 228.480469 C 192.425781 228.648438 192.105469 228.796875 191.761719 228.929688 C 191.414062 229.0625 191.050781 229.175781 190.667969 229.265625 C 190.28125 229.359375 189.886719 229.425781 189.480469 229.472656 C 189.070312 229.519531 188.660156 229.542969 188.246094 229.542969 C 187.828125 229.542969 187.417969 229.519531 187.011719 229.472656 C 186.601562 229.425781 186.207031 229.359375 185.824219 229.265625 C 185.4375 229.175781 185.074219 229.0625 184.726562 228.929688 C 184.382812 228.796875 184.0625 228.648438 183.769531 228.480469 C 183.476562 228.308594 183.214844 228.125 182.980469 227.929688 C 182.75 227.730469 182.554688 227.519531 182.398438 227.300781 C 182.238281 227.078125 182.117188 226.851562 182.035156 226.617188 C 181.957031 226.382812 181.914062 226.148438 181.914062 225.90625 C 181.914062 225.667969 181.957031 225.433594 182.035156 225.199219 C 182.117188 224.964844 182.238281 224.738281 182.398438 224.515625 C 182.554688 224.296875 182.75 224.085938 182.980469 223.886719 C 183.214844 223.6875 183.476562 223.503906 183.769531 223.335938 C 184.0625 223.167969 184.382812 223.015625 184.726562 222.882812 C 185.074219 222.75 185.4375 222.640625 185.824219 222.546875 C 186.207031 222.457031 186.601562 222.386719 187.011719 222.339844 C 187.417969 222.296875 187.828125 222.273438 188.246094 222.273438 C 188.660156 222.273438 189.070312 222.296875 189.480469 222.339844 C 189.886719 222.386719 190.28125 222.457031 190.667969 222.546875 C 191.050781 222.640625 191.414062 222.75 191.761719 222.882812 C 192.105469 223.015625 192.425781 223.167969 192.71875 223.335938 C 193.015625 223.503906 193.277344 223.6875 193.507812 223.886719 C 193.738281 224.085938 193.933594 224.296875 194.09375 224.515625 C 194.25 224.738281 194.371094 224.964844 194.453125 225.199219 C 194.535156 225.433594 194.574219 225.667969 194.574219 225.90625 Z M 194.574219 225.90625 " fill-opacity="1" fill-rule="nonzero"/><g clip-path="url(#a1c06a045b)"><path fill="#dc3545" d="M 247.789062 181.363281 C 247.789062 148.476562 221.132812 121.816406 188.246094 121.816406 C 155.359375 121.816406 128.695312 148.476562 128.695312 181.363281 C 128.695312 209.832031 148.664062 233.628906 175.375 239.519531 L 176.351562 245.9375 C 176.351562 249.941406 181.671875 253.191406 188.238281 253.191406 C 194.804688 253.191406 200.128906 249.941406 200.128906 245.9375 L 201.117188 239.519531 C 227.816406 233.628906 247.789062 209.832031 247.789062 181.363281 Z M 247.789062 181.363281 " fill-opacity="1" fill-rule="nonzero"/></g><path fill="#ffc107" d="M 199.945312 233.640625 L 198.253906 244.726562 C 198.253906 248.097656 193.773438 250.828125 188.246094 250.828125 C 182.71875 250.828125 178.238281 248.097656 178.238281 244.726562 L 176.550781 233.640625 C 176.476562 233.164062 176.511719 232.691406 176.65625 232.230469 C 176.800781 231.769531 177.039062 231.363281 177.371094 231.011719 L 181.378906 226.78125 C 181.554688 226.597656 181.746094 226.4375 181.957031 226.300781 C 181.933594 226.171875 181.925781 226.042969 181.921875 225.910156 L 181.921875 198.925781 C 183.050781 200.445312 185.429688 201.472656 188.253906 201.472656 C 191.074219 201.472656 193.453125 200.445312 194.578125 198.925781 L 194.578125 225.90625 C 194.578125 226.039062 194.566406 226.167969 194.546875 226.300781 C 194.757812 226.4375 194.953125 226.59375 195.125 226.777344 L 199.128906 231.011719 C 199.460938 231.363281 199.699219 231.769531 199.839844 232.230469 C 199.984375 232.691406 200.019531 233.164062 199.945312 233.640625 Z M 145.613281 185.613281 C 145.507812 186.042969 145.347656 186.457031 145.128906 186.84375 C 144.914062 187.230469 144.648438 187.582031 144.332031 187.898438 C 144.019531 188.210938 143.667969 188.476562 143.277344 188.695312 C 142.890625 188.914062 142.480469 189.074219 142.046875 189.179688 L 138.773438 189.96875 L 142.046875 190.757812 C 142.480469 190.859375 142.890625 191.023438 143.28125 191.242188 C 143.667969 191.460938 144.019531 191.726562 144.335938 192.039062 C 144.648438 192.355469 144.914062 192.707031 145.132812 193.097656 C 145.347656 193.484375 145.507812 193.898438 145.613281 194.328125 L 146.402344 197.605469 L 147.191406 194.328125 C 147.292969 193.898438 147.457031 193.484375 147.675781 193.097656 C 147.894531 192.710938 148.160156 192.355469 148.476562 192.042969 C 148.789062 191.726562 149.144531 191.460938 149.53125 191.246094 C 149.921875 191.027344 150.332031 190.867188 150.765625 190.761719 L 154.039062 189.972656 L 150.765625 189.179688 C 150.332031 189.074219 149.921875 188.914062 149.535156 188.695312 C 149.144531 188.476562 148.796875 188.210938 148.480469 187.898438 C 148.164062 187.582031 147.898438 187.230469 147.679688 186.84375 C 147.464844 186.457031 147.300781 186.042969 147.199219 185.613281 L 146.410156 182.339844 Z M 159.765625 200.0625 C 159.539062 201 159.1875 201.886719 158.71875 202.726562 C 158.246094 203.566406 157.671875 204.324219 156.992188 205.003906 C 156.308594 205.6875 155.550781 206.261719 154.710938 206.734375 C 153.871094 207.203125 152.984375 207.554688 152.046875 207.777344 L 144.953125 209.492188 L 152.046875 211.207031 C 152.984375 211.429688 153.871094 211.78125 154.710938 212.25 C 155.550781 212.722656 156.308594 213.296875 156.992188 213.980469 C 157.671875 214.660156 158.246094 215.417969 158.71875 216.257812 C 159.1875 217.097656 159.539062 217.984375 159.765625 218.921875 L 161.476562 226.015625 L 163.191406 218.921875 C 163.417969 217.984375 163.765625 217.097656 164.234375 216.257812 C 164.707031 215.417969 165.28125 214.660156 165.964844 213.980469 C 166.644531 213.296875 167.40625 212.722656 168.242188 212.25 C 169.082031 211.78125 169.972656 211.429688 170.90625 211.207031 L 178 209.492188 L 170.90625 207.777344 C 169.972656 207.554688 169.082031 207.203125 168.242188 206.734375 C 167.40625 206.261719 166.644531 205.6875 165.964844 205.003906 C 165.28125 204.324219 164.707031 203.566406 164.234375 202.726562 C 163.765625 201.886719 163.417969 201 163.191406 200.0625 L 161.476562 192.96875 Z M 205.578125 219.277344 C 205.378906 220.117188 204.972656 220.839844 204.367188 221.449219 C 203.757812 222.054688 203.035156 222.460938 202.199219 222.664062 L 199.09375 223.410156 L 202.199219 224.164062 C 203.035156 224.363281 203.757812 224.769531 204.363281 225.378906 C 204.972656 225.988281 205.378906 226.707031 205.578125 227.542969 L 206.332031 230.648438 L 207.082031 227.542969 C 207.285156 226.707031 207.691406 225.988281 208.296875 225.378906 C 208.90625 224.769531 209.628906 224.367188 210.464844 224.164062 L 213.558594 223.402344 L 210.453125 222.652344 C 209.617188 222.449219 208.894531 222.046875 208.285156 221.4375 C 207.679688 220.828125 207.273438 220.105469 207.070312 219.269531 L 206.320312 216.164062 Z M 216.902344 196.183594 C 216.703125 197.015625 216.394531 197.808594 215.972656 198.554688 C 215.554688 199.300781 215.042969 199.976562 214.4375 200.582031 C 213.832031 201.1875 213.15625 201.699219 212.40625 202.121094 C 211.660156 202.539062 210.871094 202.847656 210.039062 203.050781 L 203.734375 204.574219 L 210.039062 206.097656 C 210.871094 206.296875 211.660156 206.609375 212.40625 207.027344 C 213.15625 207.445312 213.832031 207.960938 214.4375 208.566406 C 215.042969 209.171875 215.554688 209.847656 215.972656 210.59375 C 216.394531 211.339844 216.703125 212.128906 216.902344 212.964844 L 218.425781 219.269531 L 219.953125 212.964844 C 220.152344 212.128906 220.460938 211.339844 220.882812 210.59375 C 221.300781 209.847656 221.8125 209.171875 222.417969 208.566406 C 223.023438 207.960938 223.699219 207.445312 224.449219 207.027344 C 225.195312 206.609375 225.984375 206.296875 226.816406 206.097656 L 233.121094 204.574219 L 226.816406 203.050781 C 225.984375 202.847656 225.191406 202.539062 224.445312 202.117188 C 223.699219 201.695312 223.019531 201.183594 222.414062 200.578125 C 221.808594 199.96875 221.296875 199.292969 220.878906 198.542969 C 220.460938 197.792969 220.152344 197.003906 219.953125 196.167969 L 218.425781 189.863281 Z M 209.148438 192.964844 C 208.839844 192.964844 208.542969 193.023438 208.261719 193.140625 C 207.976562 193.257812 207.726562 193.425781 207.507812 193.644531 C 207.289062 193.859375 207.121094 194.113281 207.003906 194.394531 C 206.886719 194.679688 206.828125 194.976562 206.828125 195.285156 C 206.828125 195.589844 206.886719 195.886719 207.003906 196.171875 C 207.121094 196.457031 207.289062 196.707031 207.507812 196.925781 C 207.726562 197.140625 207.976562 197.308594 208.261719 197.425781 C 208.542969 197.542969 208.839844 197.605469 209.148438 197.605469 C 209.457031 197.605469 209.75 197.542969 210.035156 197.425781 C 210.320312 197.308594 210.570312 197.140625 210.789062 196.925781 C 211.003906 196.707031 211.171875 196.457031 211.292969 196.171875 C 211.410156 195.886719 211.46875 195.589844 211.46875 195.285156 C 211.46875 194.976562 211.410156 194.679688 211.292969 194.394531 C 211.171875 194.113281 211.003906 193.859375 210.789062 193.644531 C 210.570312 193.425781 210.320312 193.257812 210.035156 193.140625 C 209.75 193.023438 209.457031 192.964844 209.148438 192.964844 Z M 227.707031 211.523438 C 227.398438 211.523438 227.105469 211.582031 226.820312 211.699219 C 226.535156 211.816406 226.285156 211.984375 226.066406 212.203125 C 225.847656 212.421875 225.683594 212.671875 225.5625 212.957031 C 225.445312 213.238281 225.386719 213.535156 225.386719 213.84375 C 225.386719 214.152344 225.445312 214.445312 225.5625 214.730469 C 225.683594 215.015625 225.847656 215.265625 226.066406 215.484375 C 226.285156 215.699219 226.535156 215.867188 226.820312 215.988281 C 227.105469 216.105469 227.398438 216.164062 227.707031 216.164062 C 228.015625 216.164062 228.3125 216.105469 228.59375 215.988281 C 228.878906 215.867188 229.128906 215.699219 229.347656 215.484375 C 229.566406 215.265625 229.734375 215.015625 229.851562 214.730469 C 229.96875 214.445312 230.027344 214.152344 230.027344 213.84375 C 230.027344 213.535156 229.96875 213.238281 229.851562 212.957031 C 229.734375 212.671875 229.566406 212.421875 229.347656 212.203125 C 229.128906 211.984375 228.878906 211.816406 228.59375 211.699219 C 228.3125 211.582031 228.015625 211.523438 227.707031 211.523438 Z M 172.027344 219.257812 C 171.71875 219.257812 171.421875 219.316406 171.136719 219.433594 C 170.855469 219.550781 170.601562 219.71875 170.386719 219.9375 C 170.167969 220.15625 170 220.40625 169.882812 220.691406 C 169.765625 220.972656 169.707031 221.269531 169.707031 221.578125 C 169.707031 221.886719 169.765625 222.179688 169.882812 222.464844 C 170 222.75 170.167969 223 170.386719 223.21875 C 170.601562 223.4375 170.855469 223.605469 171.136719 223.722656 C 171.421875 223.839844 171.71875 223.898438 172.027344 223.898438 C 172.332031 223.898438 172.628906 223.839844 172.914062 223.722656 C 173.199219 223.605469 173.449219 223.4375 173.667969 223.21875 C 173.882812 223 174.050781 222.75 174.167969 222.464844 C 174.285156 222.179688 174.347656 221.886719 174.347656 221.578125 C 174.347656 221.269531 174.285156 220.972656 174.167969 220.691406 C 174.050781 220.40625 173.882812 220.15625 173.667969 219.9375 C 173.449219 219.71875 173.199219 219.550781 172.914062 219.433594 C 172.628906 219.316406 172.332031 219.257812 172.027344 219.257812 Z M 153.464844 194.511719 C 153.160156 194.511719 152.863281 194.570312 152.578125 194.6875 C 152.292969 194.804688 152.042969 194.972656 151.824219 195.191406 C 151.609375 195.40625 151.441406 195.660156 151.324219 195.941406 C 151.207031 196.226562 151.144531 196.523438 151.144531 196.832031 C 151.144531 197.140625 151.207031 197.433594 151.324219 197.71875 C 151.441406 198.003906 151.609375 198.253906 151.824219 198.472656 C 152.042969 198.6875 152.292969 198.855469 152.578125 198.972656 C 152.863281 199.09375 153.160156 199.152344 153.464844 199.152344 C 153.773438 199.152344 154.070312 199.09375 154.355469 198.972656 C 154.636719 198.855469 154.890625 198.6875 155.105469 198.472656 C 155.324219 198.253906 155.492188 198.003906 155.609375 197.71875 C 155.726562 197.433594 155.785156 197.140625 155.785156 196.832031 C 155.785156 196.523438 155.726562 196.226562 155.609375 195.941406 C 155.492188 195.660156 155.324219 195.40625 155.105469 195.191406 C 154.890625 194.972656 154.636719 194.804688 154.355469 194.6875 C 154.070312 194.570312 153.773438 194.511719 153.464844 194.511719 Z M 240.542969 197.449219 C 240.542969 197.058594 240.46875 196.683594 240.320312 196.324219 C 240.171875 195.964844 239.957031 195.644531 239.683594 195.371094 C 239.40625 195.09375 239.089844 194.882812 238.730469 194.730469 C 238.367188 194.582031 237.992188 194.507812 237.605469 194.507812 C 237.214844 194.507812 236.839844 194.582031 236.476562 194.734375 C 236.117188 194.882812 235.800781 195.09375 235.523438 195.371094 C 235.25 195.644531 235.035156 195.964844 234.886719 196.324219 C 234.738281 196.683594 234.664062 197.058594 234.664062 197.449219 C 234.664062 197.839844 234.738281 198.214844 234.890625 198.574219 C 235.039062 198.9375 235.25 199.253906 235.527344 199.527344 C 235.804688 199.804688 236.121094 200.015625 236.480469 200.164062 C 236.84375 200.316406 237.21875 200.390625 237.605469 200.386719 C 237.996094 200.386719 238.371094 200.3125 238.730469 200.164062 C 239.089844 200.015625 239.410156 199.800781 239.683594 199.527344 C 239.960938 199.25 240.171875 198.933594 240.320312 198.574219 C 240.46875 198.214844 240.542969 197.839844 240.542969 197.449219 Z M 239.308594 197.449219 C 239.308594 197.675781 239.265625 197.890625 239.179688 198.101562 C 239.09375 198.308594 238.96875 198.492188 238.808594 198.652344 C 238.648438 198.8125 238.464844 198.9375 238.257812 199.023438 C 238.046875 199.109375 237.832031 199.152344 237.605469 199.152344 C 237.378906 199.152344 237.164062 199.109375 236.953125 199.023438 C 236.746094 198.9375 236.558594 198.816406 236.402344 198.65625 C 236.242188 198.496094 236.117188 198.3125 236.03125 198.101562 C 235.945312 197.894531 235.902344 197.675781 235.902344 197.449219 C 235.902344 197.222656 235.945312 197.007812 236.03125 196.796875 C 236.117188 196.589844 236.242188 196.40625 236.402344 196.246094 C 236.5625 196.085938 236.746094 195.964844 236.957031 195.878906 C 237.164062 195.792969 237.382812 195.75 237.605469 195.75 C 237.832031 195.75 238.050781 195.792969 238.257812 195.878906 C 238.464844 195.964844 238.648438 196.089844 238.808594 196.246094 C 238.96875 196.40625 239.089844 196.589844 239.175781 196.796875 C 239.261719 197.007812 239.308594 197.222656 239.308594 197.449219 Z M 203.425781 212.914062 C 203.425781 212.527344 203.351562 212.152344 203.203125 211.789062 C 203.050781 211.429688 202.839844 211.113281 202.5625 210.835938 C 202.289062 210.5625 201.96875 210.347656 201.609375 210.199219 C 201.25 210.050781 200.875 209.976562 200.484375 209.976562 C 200.09375 209.976562 199.71875 210.050781 199.359375 210.199219 C 199 210.347656 198.683594 210.5625 198.40625 210.835938 C 198.128906 211.113281 197.917969 211.429688 197.769531 211.789062 C 197.621094 212.152344 197.546875 212.527344 197.546875 212.914062 C 197.546875 213.304688 197.621094 213.679688 197.769531 214.039062 C 197.917969 214.402344 198.128906 214.71875 198.40625 214.996094 C 198.683594 215.269531 199 215.484375 199.359375 215.632812 C 199.71875 215.78125 200.09375 215.855469 200.484375 215.855469 C 200.875 215.855469 201.25 215.78125 201.609375 215.632812 C 201.96875 215.484375 202.289062 215.269531 202.5625 214.996094 C 202.839844 214.71875 203.050781 214.402344 203.203125 214.039062 C 203.351562 213.679688 203.425781 213.304688 203.425781 212.914062 Z M 202.1875 212.914062 C 202.1875 213.140625 202.144531 213.359375 202.058594 213.566406 C 201.972656 213.777344 201.851562 213.960938 201.691406 214.121094 C 201.53125 214.28125 201.347656 214.402344 201.140625 214.492188 C 200.929688 214.578125 200.714844 214.621094 200.488281 214.621094 C 200.261719 214.621094 200.042969 214.578125 199.835938 214.492188 C 199.625 214.40625 199.441406 214.28125 199.28125 214.125 C 199.121094 213.964844 199 213.78125 198.914062 213.570312 C 198.828125 213.363281 198.78125 213.144531 198.78125 212.917969 C 198.78125 212.695312 198.824219 212.476562 198.914062 212.265625 C 199 212.058594 199.121094 211.875 199.28125 211.714844 C 199.441406 211.554688 199.625 211.433594 199.832031 211.34375 C 200.042969 211.257812 200.257812 211.214844 200.484375 211.214844 C 200.710938 211.214844 200.925781 211.257812 201.136719 211.347656 C 201.34375 211.433594 201.527344 211.554688 201.6875 211.714844 C 201.847656 211.875 201.96875 212.058594 202.058594 212.265625 C 202.144531 212.472656 202.1875 212.691406 202.1875 212.914062 Z M 202.1875 212.914062 " fill-opacity="1" fill-rule="nonzero"/><path fill="#dc3545" d="M 187.585938 229.75 L 187.585938 237.417969 L 188.902344 237.417969 L 188.902344 229.75 C 188.6875 229.765625 188.464844 229.773438 188.246094 229.773438 C 188.023438 229.773438 187.8125 229.765625 187.585938 229.75 Z M 187.585938 229.75 " fill-opacity="1" fill-rule="nonzero"/><path fill="#ffffff" d="M 193.875 196.914062 C 193.875 198.628906 191.296875 200.066406 188.246094 200.066406 C 185.191406 200.066406 182.613281 198.621094 182.613281 196.914062 C 182.613281 195.210938 185.191406 193.761719 188.246094 193.761719 C 191.296875 193.761719 193.875 195.199219 193.875 196.914062 Z M 236.304688 172.453125 L 238.121094 171.738281 L 202.699219 138.316406 L 169.050781 139.289062 L 164.800781 129.992188 C 160.757812 131.847656 156.980469 134.144531 153.476562 136.886719 C 149.972656 139.628906 146.835938 142.742188 144.0625 146.21875 C 143.800781 146.546875 143.546875 146.875 143.296875 147.207031 L 159.378906 179.375 C 160.433594 181.488281 161.820312 183.355469 163.535156 184.976562 L 165.902344 187.195312 L 178.34375 198.9375 C 178.34375 198.9375 181.925781 192.757812 175.1875 186.230469 C 174.355469 185.386719 173.394531 184.726562 172.304688 184.253906 C 171.21875 183.785156 170.082031 183.53125 168.894531 183.5 C 170.953125 180.101562 172.71875 174.589844 169.054688 167.910156 C 169.054688 167.910156 178.804688 172.855469 190.574219 165.382812 C 197.757812 160.816406 199.960938 154.28125 200.585938 149.878906 L 201.773438 150.875 C 201.167969 155.269531 198.996094 161.878906 191.746094 166.484375 C 191.355469 166.730469 190.964844 166.960938 190.574219 167.179688 C 192.957031 172.085938 197.191406 180.140625 202.859375 181.394531 C 200.621094 182.324219 198.503906 185.382812 196.9375 188.933594 C 193.644531 196.394531 199.300781 200.902344 199.300781 200.902344 L 209.09375 180.929688 L 200.773438 164.726562 L 218.902344 183.535156 C 222.039062 187.210938 226.675781 191.523438 231.402344 190.484375 L 233.273438 190.078125 L 205.375 153.898438 L 223.347656 168.933594 C 227.089844 172.140625 231.714844 174.25 236.304688 172.453125 Z M 194.570312 198.925781 C 193.445312 200.445312 191.0625 201.472656 188.246094 201.472656 C 185.425781 201.472656 183.042969 200.445312 181.914062 198.925781 L 181.914062 225.90625 C 181.914062 227.902344 184.402344 229.546875 187.585938 229.746094 C 187.804688 229.757812 188.019531 229.765625 188.246094 229.765625 C 188.46875 229.765625 188.6875 229.765625 188.902344 229.746094 C 192.085938 229.546875 194.570312 227.90625 194.570312 225.90625 Z M 186.761719 247.929688 L 189.71875 247.929688 L 188.929688 237.417969 L 187.546875 237.417969 Z M 186.761719 247.929688 " fill-opacity="1" fill-rule="nonzero"/><path fill="#ffffff" d="M 202.699219 138.316406 L 200.925781 147.894531 L 221.335938 152.644531 C 226.617188 153.625 231.613281 151.214844 232.589844 145.933594 Z M 202.699219 138.316406 " fill-opacity="1" fill-rule="nonzero"/></svg>